<?xml version="1.0" encoding="UTF-8" standalone="no"?>
<!DOCTYPE svg PUBLIC "-//W3C//DTD SVG 1.1//EN"
 "http://www.w3.org/Graphics/SVG/1.1/DTD/svg11.dtd">
<!-- Generated by graphviz version 2.50.0 (20211209.0339)
 -->
<!-- Title: snakemake_dag Pages: 1 -->
<svg width="454pt" height="548pt"
 viewBox="0.00 0.00 454.00 548.00" xmlns="http://www.w3.org/2000/svg" xmlns:xlink="http://www.w3.org/1999/xlink">
<g id="graph0" class="graph" transform="scale(1 1) rotate(0) translate(4 544)">
<title>snakemake_dag</title>
<polygon fill="white" stroke="transparent" points="-4,4 -4,-544 450,-544 450,4 -4,4"/>
<!-- 0 -->
<g id="node1" class="node">
<title>0</title>
<path fill="none" stroke="#59d856" stroke-width="2" d="M219,-36C219,-36 189,-36 189,-36 183,-36 177,-30 177,-24 177,-24 177,-12 177,-12 177,-6 183,0 189,0 189,0 219,0 219,0 225,0 231,-6 231,-12 231,-12 231,-24 231,-24 231,-30 225,-36 219,-36"/>
<text text-anchor="middle" x="204" y="-15.5" font-family="sans" font-size="10.00">all</text>
</g>
<!-- 1 -->
<g id="node2" class="node">
<title>1</title>
<path fill="none" stroke="#d8bc56" stroke-width="2" d="M252,-540C252,-540 222,-540 222,-540 216,-540 210,-534 210,-528 210,-528 210,-516 210,-516 210,-510 216,-504 222,-504 222,-504 252,-504 252,-504 258,-504 264,-510 264,-516 264,-516 264,-528 264,-528 264,-534 258,-540 252,-540"/>
<text text-anchor="middle" x="237" y="-519.5" font-family="sans" font-size="10.00">cat</text>
</g>
<!-- 1&#45;&gt;0 -->
<g id="edge3" class="edge">
<title>1&#45;&gt;0</title>
<path fill="none" stroke="grey" stroke-width="2" d="M209.81,-517.64C147.56,-508.29 0,-475.89 0,-379 0,-379 0,-379 0,-161 0,-114.5 18.83,-101.22 55,-72 87.67,-45.61 134.48,-31.84 166.88,-25.02"/>
<polygon fill="grey" stroke="grey" stroke-width="2" points="167.73,-28.42 176.86,-23.05 166.37,-21.56 167.73,-28.42"/>
</g>
<!-- 2 -->
<g id="node3" class="node">
<title>2</title>
<path fill="none" stroke="#bed856" stroke-width="2" d="M196.5,-468C196.5,-468 143.5,-468 143.5,-468 137.5,-468 131.5,-462 131.5,-456 131.5,-456 131.5,-444 131.5,-444 131.5,-438 137.5,-432 143.5,-432 143.5,-432 196.5,-432 196.5,-432 202.5,-432 208.5,-438 208.5,-444 208.5,-444 208.5,-456 208.5,-456 208.5,-462 202.5,-468 196.5,-468"/>
<text text-anchor="middle" x="170" y="-447.5" font-family="sans" font-size="10.00">diamond_db</text>
</g>
<!-- 1&#45;&gt;2 -->
<g id="edge10" class="edge">
<title>1&#45;&gt;2</title>
<path fill="none" stroke="grey" stroke-width="2" d="M220.44,-503.7C212.32,-495.22 202.41,-484.86 193.53,-475.58"/>
<polygon fill="grey" stroke="grey" stroke-width="2" points="195.81,-472.91 186.37,-468.1 190.76,-477.75 195.81,-472.91"/>
</g>
<!-- 3 -->
<g id="node4" class="node">
<title>3</title>
<path fill="none" stroke="#56d8c1" stroke-width="2" d="M239.5,-396C239.5,-396 168.5,-396 168.5,-396 162.5,-396 156.5,-390 156.5,-384 156.5,-384 156.5,-372 156.5,-372 156.5,-366 162.5,-360 168.5,-360 168.5,-360 239.5,-360 239.5,-360 245.5,-360 251.5,-366 251.5,-372 251.5,-372 251.5,-384 251.5,-384 251.5,-390 245.5,-396 239.5,-396"/>
<text text-anchor="middle" x="204" y="-375.5" font-family="sans" font-size="10.00">diamond_blastp</text>
</g>
<!-- 1&#45;&gt;3 -->
<g id="edge11" class="edge">
<title>1&#45;&gt;3</title>
<path fill="none" stroke="grey" stroke-width="2" d="M233.26,-503.92C229.32,-485.98 222.87,-456.98 217,-432 215.02,-423.57 212.8,-414.4 210.75,-406.1"/>
<polygon fill="grey" stroke="grey" stroke-width="2" points="214.1,-405.03 208.3,-396.17 207.3,-406.71 214.1,-405.03"/>
</g>
<!-- 7 -->
<g id="node8" class="node">
<title>7</title>
<path fill="none" stroke="#568ad8" stroke-width="2" d="M434,-252C434,-252 394,-252 394,-252 388,-252 382,-246 382,-240 382,-240 382,-228 382,-228 382,-222 388,-216 394,-216 394,-216 434,-216 434,-216 440,-216 446,-222 446,-228 446,-228 446,-240 446,-240 446,-246 440,-252 434,-252"/>
<text text-anchor="middle" x="414" y="-231.5" font-family="sans" font-size="10.00">attributes</text>
</g>
<!-- 1&#45;&gt;7 -->
<g id="edge16" class="edge">
<title>1&#45;&gt;7</title>
<path fill="none" stroke="grey" stroke-width="2" d="M264.03,-517.69C294.11,-512.51 341.9,-499.58 368,-468 417.59,-407.99 419.05,-309.77 416.41,-262.34"/>
<polygon fill="grey" stroke="grey" stroke-width="2" points="419.89,-261.96 415.73,-252.22 412.9,-262.43 419.89,-261.96"/>
</g>
<!-- 8 -->
<g id="node9" class="node">
<title>8</title>
<path fill="none" stroke="#56d88a" stroke-width="2" d="M370,-180C370,-180 338,-180 338,-180 332,-180 326,-174 326,-168 326,-168 326,-156 326,-156 326,-150 332,-144 338,-144 338,-144 370,-144 370,-144 376,-144 382,-150 382,-156 382,-156 382,-168 382,-168 382,-174 376,-180 370,-180"/>
<text text-anchor="middle" x="354" y="-159.5" font-family="sans" font-size="10.00">vertices</text>
</g>
<!-- 1&#45;&gt;8 -->
<g id="edge18" class="edge">
<title>1&#45;&gt;8</title>
<path fill="none" stroke="grey" stroke-width="2" d="M264.14,-504.54C298.7,-481.25 354,-435.22 354,-379 354,-379 354,-379 354,-305 354,-265 354,-218.65 354,-190.08"/>
<polygon fill="grey" stroke="grey" stroke-width="2" points="357.5,-190.05 354,-180.05 350.5,-190.05 357.5,-190.05"/>
</g>
<!-- 2&#45;&gt;0 -->
<g id="edge4" class="edge">
<title>2&#45;&gt;0</title>
<path fill="none" stroke="grey" stroke-width="2" d="M136.69,-431.87C97.59,-409.09 38,-364.89 38,-307 38,-307 38,-307 38,-161 38,-93.41 118.45,-51.11 167.34,-31.64"/>
<polygon fill="grey" stroke="grey" stroke-width="2" points="168.88,-34.8 176.96,-27.94 166.37,-28.26 168.88,-34.8"/>
</g>
<!-- 2&#45;&gt;3 -->
<g id="edge12" class="edge">
<title>2&#45;&gt;3</title>
<path fill="none" stroke="grey" stroke-width="2" d="M178.4,-431.7C182.27,-423.73 186.95,-414.1 191.24,-405.26"/>
<polygon fill="grey" stroke="grey" stroke-width="2" points="194.47,-406.63 195.69,-396.1 188.17,-403.57 194.47,-406.63"/>
</g>
<!-- 3&#45;&gt;0 -->
<g id="edge7" class="edge">
<title>3&#45;&gt;0</title>
<path fill="none" stroke="grey" stroke-width="2" d="M204,-359.95C204,-333.29 204,-280.11 204,-235 204,-235 204,-235 204,-161 204,-121 204,-74.65 204,-46.08"/>
<polygon fill="grey" stroke="grey" stroke-width="2" points="207.5,-46.05 204,-36.05 200.5,-46.05 207.5,-46.05"/>
</g>
<!-- 4 -->
<g id="node5" class="node">
<title>4</title>
<path fill="none" stroke="#d85656" stroke-width="2" d="M126,-180C126,-180 78,-180 78,-180 72,-180 66,-174 66,-168 66,-168 66,-156 66,-156 66,-150 72,-144 78,-144 78,-144 126,-144 126,-144 132,-144 138,-150 138,-156 138,-156 138,-168 138,-168 138,-174 132,-180 126,-180"/>
<text text-anchor="middle" x="102" y="-159.5" font-family="sans" font-size="10.00">distribution</text>
</g>
<!-- 3&#45;&gt;4 -->
<g id="edge13" class="edge">
<title>3&#45;&gt;4</title>
<path fill="none" stroke="grey" stroke-width="2" d="M195.83,-359.85C178.07,-322.6 135.87,-234.07 114.65,-189.54"/>
<polygon fill="grey" stroke="grey" stroke-width="2" points="117.68,-187.75 110.21,-180.23 111.36,-190.77 117.68,-187.75"/>
</g>
<!-- 5 -->
<g id="node6" class="node">
<title>5</title>
<path fill="none" stroke="#d88d56" stroke-width="2" d="M274,-324C274,-324 244,-324 244,-324 238,-324 232,-318 232,-312 232,-312 232,-300 232,-300 232,-294 238,-288 244,-288 244,-288 274,-288 274,-288 280,-288 286,-294 286,-300 286,-300 286,-312 286,-312 286,-318 280,-324 274,-324"/>
<text text-anchor="middle" x="259" y="-303.5" font-family="sans" font-size="10.00">filter</text>
</g>
<!-- 3&#45;&gt;5 -->
<g id="edge14" class="edge">
<title>3&#45;&gt;5</title>
<path fill="none" stroke="grey" stroke-width="2" d="M217.6,-359.7C224.12,-351.39 232.07,-341.28 239.25,-332.14"/>
<polygon fill="grey" stroke="grey" stroke-width="2" points="242.13,-334.13 245.56,-324.1 236.63,-329.81 242.13,-334.13"/>
</g>
<!-- 4&#45;&gt;0 -->
<g id="edge1" class="edge">
<title>4&#45;&gt;0</title>
<path fill="none" stroke="grey" stroke-width="2" d="M109.97,-143.79C118.94,-125.23 134.55,-95.25 152,-72 159.54,-61.95 168.88,-51.87 177.55,-43.25"/>
<polygon fill="grey" stroke="grey" stroke-width="2" points="180.2,-45.55 184.93,-36.07 175.32,-40.53 180.2,-45.55"/>
</g>
<!-- 5&#45;&gt;0 -->
<g id="edge2" class="edge">
<title>5&#45;&gt;0</title>
<path fill="none" stroke="grey" stroke-width="2" d="M244.91,-287.82C237.41,-277.89 228.6,-264.85 223,-252 196.77,-191.81 197.38,-173.24 190,-108 188.2,-92.1 187.94,-87.87 190,-72 191.1,-63.51 193.16,-54.43 195.37,-46.24"/>
<polygon fill="grey" stroke="grey" stroke-width="2" points="198.78,-47.02 198.18,-36.44 192.05,-45.09 198.78,-47.02"/>
</g>
<!-- 6 -->
<g id="node7" class="node">
<title>6</title>
<path fill="none" stroke="#88d856" stroke-width="2" d="M313.5,-252C313.5,-252 244.5,-252 244.5,-252 238.5,-252 232.5,-246 232.5,-240 232.5,-240 232.5,-228 232.5,-228 232.5,-222 238.5,-216 244.5,-216 244.5,-216 313.5,-216 313.5,-216 319.5,-216 325.5,-222 325.5,-228 325.5,-228 325.5,-240 325.5,-240 325.5,-246 319.5,-252 313.5,-252"/>
<text text-anchor="middle" x="279" y="-231.5" font-family="sans" font-size="10.00">diamond2graph</text>
</g>
<!-- 5&#45;&gt;6 -->
<g id="edge15" class="edge">
<title>5&#45;&gt;6</title>
<path fill="none" stroke="grey" stroke-width="2" d="M263.94,-287.7C266.17,-279.9 268.85,-270.51 271.33,-261.83"/>
<polygon fill="grey" stroke="grey" stroke-width="2" points="274.73,-262.68 274.11,-252.1 268,-260.76 274.73,-262.68"/>
</g>
<!-- 6&#45;&gt;0 -->
<g id="edge5" class="edge">
<title>6&#45;&gt;0</title>
<path fill="none" stroke="grey" stroke-width="2" d="M272.99,-215.85C259.96,-178.68 229.04,-90.44 213.4,-45.82"/>
<polygon fill="grey" stroke="grey" stroke-width="2" points="216.65,-44.51 210.04,-36.23 210.04,-46.83 216.65,-44.51"/>
</g>
<!-- 6&#45;&gt;8 -->
<g id="edge17" class="edge">
<title>6&#45;&gt;8</title>
<path fill="none" stroke="grey" stroke-width="2" d="M297.54,-215.7C306.8,-207.05 318.16,-196.45 328.26,-187.03"/>
<polygon fill="grey" stroke="grey" stroke-width="2" points="330.75,-189.49 335.67,-180.1 325.98,-184.37 330.75,-189.49"/>
</g>
<!-- 9 -->
<g id="node10" class="node">
<title>9</title>
<path fill="none" stroke="#56c1d8" stroke-width="2" d="M314,-108C314,-108 282,-108 282,-108 276,-108 270,-102 270,-96 270,-96 270,-84 270,-84 270,-78 276,-72 282,-72 282,-72 314,-72 314,-72 320,-72 326,-78 326,-84 326,-84 326,-96 326,-96 326,-102 320,-108 314,-108"/>
<text text-anchor="middle" x="298" y="-87.5" font-family="sans" font-size="10.00">network</text>
</g>
<!-- 6&#45;&gt;9 -->
<g id="edge21" class="edge">
<title>6&#45;&gt;9</title>
<path fill="none" stroke="grey" stroke-width="2" d="M281.29,-215.87C284.53,-191.67 290.48,-147.21 294.33,-118.39"/>
<polygon fill="grey" stroke="grey" stroke-width="2" points="297.84,-118.57 295.7,-108.19 290.9,-117.64 297.84,-118.57"/>
</g>
<!-- 7&#45;&gt;0 -->
<g id="edge9" class="edge">
<title>7&#45;&gt;0</title>
<path fill="none" stroke="grey" stroke-width="2" d="M413.1,-215.75C410.41,-182.7 399.7,-110.33 357,-72 324.49,-42.81 275.06,-29.53 241.24,-23.6"/>
<polygon fill="grey" stroke="grey" stroke-width="2" points="241.71,-20.13 231.28,-21.98 240.59,-27.04 241.71,-20.13"/>
</g>
<!-- 7&#45;&gt;8 -->
<g id="edge19" class="edge">
<title>7&#45;&gt;8</title>
<path fill="none" stroke="grey" stroke-width="2" d="M399.17,-215.7C391.98,-207.3 383.2,-197.07 375.31,-187.86"/>
<polygon fill="grey" stroke="grey" stroke-width="2" points="377.83,-185.42 368.66,-180.1 372.51,-189.97 377.83,-185.42"/>
</g>
<!-- 8&#45;&gt;0 -->
<g id="edge6" class="edge">
<title>8&#45;&gt;0</title>
<path fill="none" stroke="grey" stroke-width="2" d="M354.86,-143.89C354.92,-124.31 352.07,-92.33 335,-72 311.51,-44.01 271.01,-30.65 241.24,-24.37"/>
<polygon fill="grey" stroke="grey" stroke-width="2" points="241.69,-20.89 231.21,-22.43 240.36,-27.77 241.69,-20.89"/>
</g>
<!-- 8&#45;&gt;9 -->
<g id="edge20" class="edge">
<title>8&#45;&gt;9</title>
<path fill="none" stroke="grey" stroke-width="2" d="M340.16,-143.7C333.51,-135.39 325.42,-125.28 318.11,-116.14"/>
<polygon fill="grey" stroke="grey" stroke-width="2" points="320.66,-113.73 311.68,-108.1 315.2,-118.1 320.66,-113.73"/>
</g>
<!-- 9&#45;&gt;0 -->
<g id="edge8" class="edge">
<title>9&#45;&gt;0</title>
<path fill="none" stroke="grey" stroke-width="2" d="M274.76,-71.7C262.81,-62.8 248.08,-51.82 235.15,-42.2"/>
<polygon fill="grey" stroke="grey" stroke-width="2" points="237.08,-39.27 226.97,-36.1 232.9,-44.88 237.08,-39.27"/>
</g>
</g>
</svg>
